<svg width="159" height="32" viewBox="0 0 159 32" fill="none" xmlns="http://www.w3.org/2000/svg">
<g clip-path="url(#clip0_146_15808)">
<path fill-rule="evenodd" clip-rule="evenodd" d="M30.1261 14.9774H24.5083V23.0604H30.1261V14.9774ZM29.0025 15.7122H27.8789V23.0604H29.0025V15.7122Z" fill="#233F8A"/>
<path fill-rule="evenodd" clip-rule="evenodd" d="M24.5087 9.20386H18.8909V26.5246H24.5087V9.20386ZM23.3855 10.2863H21.1384V26.5245H23.3855V10.2863Z" fill="#233F8A"/>
<path fill-rule="evenodd" clip-rule="evenodd" d="M18.8908 2.27551H9.90234V27.6793H14.3968V3.43032H17.7675V27.6793H18.8908V2.27551Z" fill="#233F8A"/>
<path fill-rule="evenodd" clip-rule="evenodd" d="M39.5315 12.7723C37.1441 15.342 34.0774 17.9346 30.5251 20.2708C20.1929 27.0659 9.66553 29.1191 7.01162 24.8568C5.31602 22.1336 7.24458 17.4913 11.5531 12.7216C4.56708 18.7553 0.996733 25.6117 3.35511 29.3993C6.22593 34.01 16.7947 32.3275 26.9611 25.6414C32.9097 21.7293 37.4025 16.9709 39.5315 12.7723Z" fill="#233F8A"/>
<path d="M39.5315 12.7723L39.6652 12.8401L39.4216 12.6702L39.5315 12.7723ZM30.5251 20.2708L30.6075 20.3961L30.5251 20.2708ZM7.01162 24.8568L7.13895 24.7776L7.01162 24.8568ZM11.5531 12.7216L11.6644 12.8221L11.4551 12.608L11.5531 12.7216ZM3.35511 29.3993L3.22778 29.4786L3.35511 29.3993ZM26.9611 25.6414L26.8787 25.5161L26.9611 25.6414ZM39.4216 12.6702C37.0432 15.2303 33.9859 17.8152 30.4426 20.1455L30.6075 20.3961C34.1689 18.0539 37.2451 15.4537 39.6414 12.8744L39.4216 12.6702ZM30.4426 20.1455C25.2885 23.5351 20.0917 25.7378 15.8603 26.5631C13.7441 26.9758 11.8774 27.0425 10.3813 26.7468C8.88618 26.4513 7.77382 25.7972 7.13895 24.7776L6.88429 24.9361C7.57638 26.0477 8.77515 26.7352 10.3232 27.0411C11.8703 27.3469 13.7788 27.2747 15.9177 26.8576C20.1964 26.023 25.4294 23.8016 30.6075 20.3961L30.4426 20.1455ZM7.13895 24.7776C6.32714 23.4738 6.36962 21.6881 7.17077 19.6106C7.97069 17.5363 9.51752 15.1988 11.6644 12.8221L11.4418 12.621C9.28017 15.014 7.70845 17.3826 6.89086 19.5027C6.0745 21.6196 6.0005 23.5167 6.88429 24.9361L7.13895 24.7776ZM3.48245 29.3201C2.34515 27.4935 2.62097 24.8958 4.08412 21.9698C5.54384 19.0507 8.16829 15.8432 11.6512 12.8351L11.4551 12.608C7.9519 15.6337 5.29816 18.8713 3.8158 21.8357C2.33686 24.7932 2.0067 27.5175 3.22778 29.4786L3.48245 29.3201ZM26.8787 25.5161C21.8088 28.8504 16.6449 30.9326 12.3987 31.6085C8.13691 32.287 4.86596 31.542 3.48245 29.3201L3.22778 29.4786C4.71509 31.8673 8.16393 32.5864 12.4459 31.9048C16.7434 31.2207 21.947 29.1186 27.0436 25.7668L26.8787 25.5161ZM39.3977 12.7044C37.284 16.8729 32.8129 21.6134 26.8787 25.5161L27.0436 25.7668C33.0066 21.8451 37.521 17.0688 39.6652 12.8401L39.3977 12.7044Z" fill="white"/>
<mask id="path-6-inside-1_146_15808" fill="white">
<path fill-rule="evenodd" clip-rule="evenodd" d="M16.6724 23.5459C18.631 22.456 20.7186 20.9359 22.7334 19.0621C28.5924 13.613 31.6168 7.23617 29.4885 4.81918C28.1291 3.27527 24.996 3.72054 21.3828 5.66396C26.214 2.22447 30.964 1.10554 32.8549 3.25307C35.1571 5.8676 32.35 12.3336 26.5849 17.6954C23.2112 20.8331 19.5722 22.8973 16.6724 23.5459Z"/>
</mask>
<path fill-rule="evenodd" clip-rule="evenodd" d="M16.6724 23.5459C18.631 22.456 20.7186 20.9359 22.7334 19.0621C28.5924 13.613 31.6168 7.23617 29.4885 4.81918C28.1291 3.27527 24.996 3.72054 21.3828 5.66396C26.214 2.22447 30.964 1.10554 32.8549 3.25307C35.1571 5.8676 32.35 12.3336 26.5849 17.6954C23.2112 20.8331 19.5722 22.8973 16.6724 23.5459Z" fill="#233F8A"/>
<path d="M16.6724 23.5459L16.7393 23.8392L16.526 23.2828L16.6724 23.5459ZM22.7334 19.0621L22.5291 18.8411L22.7334 19.0621ZM29.4885 4.81918L29.2647 5.01742L29.4885 4.81918ZM21.3828 5.66396L21.5255 5.92906L21.2085 5.41845L21.3828 5.66396ZM32.8549 3.25307L33.0788 3.05483L32.8549 3.25307ZM26.5849 17.6954L26.7892 17.9164L26.5849 17.6954ZM16.526 23.2828C18.4615 22.2058 20.5299 20.7004 22.5291 18.8411L22.9376 19.2832C20.9073 21.1715 18.8006 22.7063 16.8189 23.8089L16.526 23.2828ZM22.5291 18.8411C25.4378 16.1358 27.6329 13.2089 28.8356 10.673C29.4374 9.40434 29.784 8.24744 29.8562 7.27387C29.9283 6.30043 29.7251 5.54024 29.2647 5.01742L29.7124 4.62094C30.3161 5.30662 30.5329 6.2499 30.4534 7.32218C30.374 8.39432 29.9974 9.62537 29.3767 10.9342C28.1345 13.5532 25.8879 16.5393 22.9376 19.2832L22.5291 18.8411ZM29.2647 5.01742C28.6789 4.35216 27.6768 4.07631 26.3167 4.23243C24.9623 4.38789 23.3129 4.96768 21.5255 5.92906L21.2401 5.39885C23.0659 4.41681 24.7896 3.80227 26.245 3.63521C27.6945 3.46883 28.9387 3.7423 29.7124 4.62094L29.2647 5.01742ZM32.6311 3.45131C31.7954 2.50225 30.2783 2.22377 28.2867 2.65713C26.3097 3.08729 23.9512 4.20498 21.557 5.90946L21.2085 5.41845C23.6456 3.68344 26.0777 2.52193 28.1563 2.06964C30.2202 1.62054 32.0235 1.85636 33.0788 3.05483L32.6311 3.45131ZM26.3807 17.4743C29.2401 14.815 31.3556 11.8905 32.4705 9.32252C33.0281 8.03812 33.3298 6.85587 33.3579 5.8484C33.3859 4.84236 33.1417 4.03113 32.6311 3.45131L33.0788 3.05483C33.7193 3.78227 33.9875 4.75975 33.9565 5.86898C33.9256 6.97679 33.5968 8.23638 33.0198 9.56553C31.8654 12.2246 29.6948 15.2141 26.7892 17.9164L26.3807 17.4743ZM16.6056 23.2525C19.4378 22.619 23.0313 20.5894 26.3807 17.4743L26.7892 17.9164C23.3912 21.0767 19.7067 23.1755 16.7393 23.8392L16.6056 23.2525Z" fill="white" mask="url(#path-6-inside-1_146_15808)"/>
<path d="M43.7903 21.0886V7H52.5098V9.37373H46.1375V12.6028H49.474C50.7348 12.6028 51.7242 12.9936 52.4419 13.7752C53.1596 14.5505 53.5185 15.5788 53.5185 16.8601C53.5185 17.9749 53.2114 18.9584 52.5971 19.8105C51.9893 20.6626 50.9482 21.0886 49.474 21.0886H43.7903ZM46.1375 14.9861V18.7053H48.6204C49.267 18.7053 49.7326 18.6636 50.0171 18.5804C50.3081 18.4907 50.5603 18.2888 50.7736 17.9749C50.9935 17.661 51.1034 17.2958 51.1034 16.8793C51.1034 15.6172 50.3081 14.9861 48.7174 14.9861H46.1375Z" fill="#233F8A"/>
<path d="M55.45 21.0886V10.8922H57.5935V17.2926L61.027 10.8922H63.2384V21.0886H61.0852V14.5537L57.5935 21.0886H55.45Z" fill="#233F8A"/>
<path d="M68.2736 16.8986H67.8566V15.1495C68.9041 15.1495 69.4278 14.701 69.4278 13.8041C69.4278 13.4389 69.3244 13.1313 69.1175 12.8815C68.9105 12.6316 68.6293 12.5067 68.2736 12.5067C67.5882 12.5067 67.113 12.9455 66.8479 13.8233L64.9371 13.3332C65.3833 11.5521 66.5019 10.6615 68.293 10.6615C69.2759 10.6615 70.0583 10.9338 70.6402 11.4784C71.2222 12.023 71.5131 12.7341 71.5131 13.6119C71.5131 14.5729 71.012 15.3385 70.0098 15.9087C71.2513 16.3572 71.872 17.1901 71.872 18.4074C71.872 19.2531 71.5487 19.9514 70.9021 20.5024C70.262 21.0534 69.3923 21.3289 68.293 21.3289C66.3209 21.3289 65.0891 20.3711 64.5977 18.4554L66.6442 18.023C66.9804 19.016 67.5236 19.5125 68.2736 19.5125C68.6616 19.5125 68.9946 19.3876 69.2726 19.1377C69.5507 18.8815 69.6897 18.5611 69.6897 18.1767C69.6897 17.7923 69.5571 17.4848 69.292 17.2541C69.0269 17.0171 68.6875 16.8986 68.2736 16.8986Z" fill="#233F8A"/>
<path d="M73.6483 21.0886V10.8922H75.8888V14.6113H79.0895V10.8922H81.33V21.0886H79.0895V16.8025H75.8888V21.0886H73.6483Z" fill="#233F8A"/>
<path d="M88.5379 17.8404L90.759 18.292C90.4615 19.3171 89.9992 20.0796 89.372 20.5793C88.7448 21.0726 87.9818 21.3193 87.083 21.3193C85.8351 21.3193 84.8716 20.906 84.1927 20.0796C83.3909 19.1185 82.99 17.7731 82.99 16.0432C82.99 14.339 83.3941 12.9744 84.2024 11.9493C84.8878 11.0844 85.7736 10.6519 86.8599 10.6519C88.0691 10.6519 89.0164 11.094 89.7018 11.9781C90.4906 12.9904 90.8851 14.4832 90.8851 16.4565L90.8754 16.764H85.279C85.2919 17.5713 85.473 18.1959 85.8221 18.638C86.1778 19.0801 86.6045 19.3011 87.1024 19.3011C87.8201 19.3011 88.2986 18.8142 88.5379 17.8404ZM88.664 15.1111C88.6446 14.3166 88.4732 13.7208 88.1499 13.3235C87.8266 12.9199 87.4419 12.7181 86.9957 12.7181C86.5237 12.7181 86.126 12.9263 85.8027 13.3428C85.473 13.7656 85.3113 14.355 85.3178 15.1111H88.664Z" fill="#233F8A"/>
<path d="M100.12 13.9002L97.9183 14.3807C97.7567 13.3107 97.2491 12.7758 96.3956 12.7758C95.8459 12.7758 95.403 13.0064 95.0668 13.4677C94.7305 13.929 94.5624 14.7074 94.5624 15.803C94.5624 17.0139 94.7305 17.8692 95.0668 18.3689C95.403 18.8687 95.8524 19.1185 96.415 19.1185C96.8352 19.1185 97.1812 18.9776 97.4528 18.6957C97.7243 18.4074 97.9183 17.9012 98.0347 17.1773L100.236 17.6289C99.7838 20.0892 98.4809 21.3193 96.3277 21.3193C94.9504 21.3193 93.9287 20.8003 93.2627 19.7624C92.5967 18.7245 92.2637 17.4752 92.2637 16.0144C92.2637 14.2654 92.6388 12.9359 93.3888 12.0262C94.1454 11.11 95.1347 10.6519 96.3568 10.6519C97.3461 10.6519 98.1511 10.9114 98.7718 11.4303C99.399 11.9493 99.8484 12.7726 100.12 13.9002Z" fill="#233F8A"/>
<path d="M101.129 21.0886L105.61 7H107.268L112.04 21.0886H110.275L108.917 16.8217H104.048L102.768 21.0886H101.129ZM104.494 15.3033H108.442L107.229 11.4015C106.854 10.2034 106.58 9.22958 106.405 8.47998C106.256 9.38334 106.046 10.2803 105.775 11.1708L104.494 15.3033Z" fill="#233F8A"/>
<path d="M113.118 25V10.8825H114.428V12.2088C114.751 11.6578 115.11 11.2605 115.504 11.0171C115.899 10.7736 116.351 10.6519 116.862 10.6519C117.528 10.6519 118.129 10.8473 118.666 11.2381C119.203 11.6289 119.633 12.2248 119.956 13.0256C120.286 13.8201 120.451 14.7779 120.451 15.8991C120.451 17.6353 120.082 18.9744 119.345 19.9162C118.614 20.8516 117.754 21.3193 116.765 21.3193C116.325 21.3193 115.915 21.2072 115.533 20.9829C115.152 20.7587 114.822 20.4415 114.544 20.0315V25H113.118ZM114.408 16.0432C114.408 17.3631 114.631 18.3369 115.077 18.9648C115.524 19.5862 116.063 19.897 116.697 19.897C117.305 19.897 117.838 19.5734 118.297 18.9263C118.757 18.2792 118.986 17.2798 118.986 15.9279C118.986 14.5953 118.763 13.6086 118.317 12.968C117.871 12.3273 117.328 12.0069 116.687 12.0069C116.112 12.0069 115.588 12.3529 115.116 13.0448C114.644 13.7304 114.408 14.7298 114.408 16.0432Z" fill="#233F8A"/>
<path d="M128.017 17.8019L129.492 18.023C129.246 19.1121 128.8 19.9354 128.153 20.4928C127.513 21.0438 126.718 21.3193 125.767 21.3193C124.571 21.3193 123.601 20.8708 122.857 19.9738C122.12 19.0705 121.752 17.7699 121.752 16.0721C121.752 14.3102 122.124 12.968 122.867 12.0454C123.617 11.1164 124.565 10.6519 125.709 10.6519C126.802 10.6519 127.713 11.1068 128.444 12.0166C129.175 12.9263 129.54 14.2429 129.54 15.9664L129.53 16.4277H123.226C123.284 17.5745 123.553 18.4394 124.031 19.0224C124.51 19.6054 125.091 19.897 125.777 19.897C126.85 19.897 127.597 19.1986 128.017 17.8019ZM123.313 15.0053H128.027C127.962 14.1212 127.772 13.4613 127.455 13.0256C126.996 12.3914 126.411 12.0742 125.699 12.0742C125.059 12.0742 124.513 12.3401 124.06 12.8719C123.608 13.3972 123.359 14.1084 123.313 15.0053Z" fill="#233F8A"/>
<path d="M131.384 10.8825H132.81V15.1303H136.787V10.8825H138.213V21.0886H136.787V16.5622H132.81V21.0886H131.384V10.8825Z" fill="#233F8A"/>
<path d="M141.58 10.8825H147.457V19.6663H148.369V23.9813H147.195V21.0886H140.551V23.9813H139.368V19.6663H140.125C141.114 18.039 141.599 15.1111 141.58 10.8825ZM142.763 12.3145C142.659 15.6332 142.236 18.0838 141.492 19.6663H146.031V12.3145H142.763Z" fill="#233F8A"/>
<path d="M155.489 19.8297C155.011 20.323 154.513 20.6946 153.996 20.9445C153.479 21.1943 152.942 21.3193 152.386 21.3193C151.506 21.3193 150.805 21.0566 150.281 20.5312C149.757 20.0059 149.495 19.2979 149.495 18.4074C149.495 17.8179 149.618 17.2958 149.864 16.8409C150.11 16.386 150.446 16.0304 150.873 15.7742C151.299 15.5179 151.946 15.3289 152.812 15.2072C153.976 15.0406 154.83 14.842 155.373 14.6113L155.383 14.1692C155.383 13.4709 155.257 12.9808 155.004 12.6989C154.649 12.2888 154.102 12.0838 153.365 12.0838C152.699 12.0838 152.201 12.2216 151.872 12.4971C151.542 12.7662 151.299 13.2755 151.144 14.0251L149.738 13.7944C149.938 12.6989 150.342 11.9012 150.95 11.4015C151.565 10.9018 152.441 10.6519 153.579 10.6519C154.465 10.6519 155.16 10.8185 155.664 11.1516C156.168 11.4784 156.485 11.8852 156.615 12.3721C156.75 12.859 156.818 13.5702 156.818 14.5056V16.8121C156.818 18.4266 156.847 19.4453 156.906 19.8681C156.97 20.2846 157.093 20.6914 157.274 21.0886H155.78C155.632 20.7363 155.535 20.3166 155.489 19.8297ZM155.373 15.9664C154.849 16.2226 154.07 16.4405 153.036 16.6199C152.434 16.7224 152.014 16.8409 151.775 16.9754C151.535 17.1036 151.348 17.2894 151.212 17.5328C151.083 17.7699 151.018 18.0454 151.018 18.3593C151.018 18.8462 151.17 19.2371 151.474 19.5318C151.778 19.8201 152.198 19.9642 152.735 19.9642C153.246 19.9642 153.708 19.8329 154.122 19.5702C154.542 19.3075 154.856 18.9584 155.063 18.5227C155.27 18.0806 155.373 17.4399 155.373 16.6006V15.9664Z" fill="#233F8A"/>
</g>
<defs>
<clipPath id="clip0_146_15808">
<rect width="159" height="32" fill="white"/>
</clipPath>
</defs>
</svg>
