<svg width="18" height="18" viewBox="0 0 18 18" fill="none" xmlns="http://www.w3.org/2000/svg">
<path d="M9.00008 0.666626C4.48258 0.666626 0.666748 4.48246 0.666748 8.99996C0.666748 13.5175 4.48258 17.3333 9.00008 17.3333C13.5176 17.3333 17.3334 13.5175 17.3334 8.99996C17.3334 4.48246 13.5176 0.666626 9.00008 0.666626ZM9.00008 4.83329C10.4392 4.83329 11.5001 5.89329 11.5001 7.33329C11.5001 8.77329 10.4392 9.83329 9.00008 9.83329C7.56175 9.83329 6.50008 8.77329 6.50008 7.33329C6.50008 5.89329 7.56175 4.83329 9.00008 4.83329ZM4.74508 12.9766C5.49258 11.8766 6.73925 11.1433 8.16675 11.1433H9.83342C11.2617 11.1433 12.5076 11.8766 13.2551 12.9766C12.1901 14.1166 10.6792 14.8333 9.00008 14.8333C7.32091 14.8333 5.81008 14.1166 4.74508 12.9766Z" fill="#1D1E20"/>
</svg>
